<?xml version="1.0" encoding="UTF-8"?>
<svg width="40px" height="40px" viewBox="0 0 40 40" version="1.1" xmlns="http://www.w3.org/2000/svg" xmlns:xlink="http://www.w3.org/1999/xlink">
    <title>Icons / Recyclable</title>
    <defs>
        <polygon id="path-1" points="0 0.5 40 0.5 40 39.5 0 39.5"></polygon>
        <polygon id="path-3" points="0 0.0002 27.777 0.0002 27.777 23.6231 0 23.6231"></polygon>
    </defs>
    <g id="Interactive-Map" stroke="none" stroke-width="1" fill="none" fill-rule="evenodd">
        <g id="Interactive-Map_1440" transform="translate(-967.000000, -1069.000000)">
            <g id="Icons-/-Recyclable" transform="translate(967.000000, 1069.000000)">
                <g id="Oval_Dark" transform="translate(20.000000, 20.000000) scale(-1, 1) translate(-20.000000, -20.000000) ">
                    <mask id="mask-2" fill="white">
                        <use xlink:href="#path-1"></use>
                    </mask>
                    <g id="Clip-2"></g>
                    <path d="M40,20.1182353 C40,22.237318 39.1618282,24.1927109 38.5304657,26.1048428 C37.8762829,28.0864261 37.1465077,29.9929458 35.9260954,31.6424724 C34.6937975,33.3083679 33.126326,34.6550682 31.4328672,35.8675427 C29.7560483,37.0678574 27.8660019,37.7913668 25.8516322,38.4346681 C23.9081006,39.0555205 21.9557737,39.486025 19.8016295,39.486025 C17.647723,39.486025 15.5064152,39.6279675 13.562646,39.0071151 C11.5482763,38.3635799 9.7896845,37.1454932 8.11286556,35.9451785 C6.41940679,34.7327039 5.01025132,33.2361105 3.77795342,31.5699811 C2.55754111,29.9206884 1.53514272,28.147459 0.88095988,26.1658758 C0.249835087,24.2539777 0,22.237318 0,20.1182353 C0,17.9991525 0.284303296,15.9934835 0.915428089,14.0813515 C1.56961093,12.0997683 2.32291958,10.1476492 3.54333189,8.49835651 C4.7758675,6.8322271 6.53398387,5.65833663 8.22744264,4.44586211 C9.90426158,3.24554741 11.6692716,2.23932218 13.6836413,1.59602084 C15.6274105,0.975168414 17.647723,0.5 19.8016295,0.5 C21.9557737,0.5 24.1210904,0.535310251 26.0648597,1.15616268 C28.0794671,1.79969786 29.9754563,2.87233443 31.6522752,4.07264913 C33.345734,5.28512365 34.5483179,7.03263032 35.7808535,8.69852588 C37.0010281,10.3478186 38.0115409,12.1070174 38.6657237,14.0886006 C39.2968485,16.0007326 40,17.9991525 40,20.1182353" id="Fill-1" fill="#8DC63F" mask="url(#mask-2)"></path>
                </g>
                <g id="Icons-/-Swoosh" transform="translate(8.000000, 8.000000)">
                    <mask id="mask-4" fill="white">
                        <use xlink:href="#path-3"></use>
                    </mask>
                    <g id="Clip-2"></g>
                    <path d="M27.766,11.0862 C27.766,9.8272 26.719,8.8062 25.427,8.8062 C24.944,8.8062 24.495,8.9492 24.122,9.1932 L23.923,9.1932 C22.697,3.9382 17.874,0.0002 12.117,0.0002 C5.436,0.0002 0,5.2992 0,11.8122 C0,18.3242 5.436,23.6232 12.117,23.6232 C14.142,23.6232 16.146,23.1262 17.913,22.1862 L16.495,19.6522 C15.162,20.3622 13.648,20.7372 12.117,20.7372 C7.068,20.7372 2.96,16.7332 2.96,11.8122 C2.96,6.8902 7.068,2.8862 12.117,2.8862 C16.231,2.8862 19.719,5.5462 20.87,9.1932 L20.699,9.1932 C20.326,8.9492 19.876,8.8062 19.394,8.8062 C18.102,8.8062 17.055,9.8272 17.055,11.0862 C17.055,11.0862 16.751,12.0892 19.253,14.8022 C21.755,17.5152 22.411,18.2222 22.411,18.2222 C22.411,18.2222 23.065,17.5152 25.568,14.8022 C28.07,12.0892 27.766,11.0862 27.766,11.0862" id="Fill-1" fill="#FFFFFF" mask="url(#mask-4)"></path>
                </g>
            </g>
        </g>
    </g>
</svg>