<?xml version="1.0" encoding="UTF-8"?>
<svg width="40px" height="40px" viewBox="0 0 40 40" version="1.1" xmlns="http://www.w3.org/2000/svg" xmlns:xlink="http://www.w3.org/1999/xlink">
    <title>Icons / Non-Recyclable</title>
    <defs>
        <polygon id="path-1" points="0 0 40 0 40 40 0 40"></polygon>
        <polygon id="path-3" points="0 0.0002 27.777 0.0002 27.777 23.6231 0 23.6231"></polygon>
    </defs>
    <g id="Icons-/-Non-Recyclable" stroke="none" stroke-width="1" fill="none" fill-rule="evenodd">
        <g id="Icons-/-Recyclable">
            <g id="Oval_Border" transform="translate(20.000000, 20.000000) scale(-1, 1) translate(-20.000000, -20.000000) ">
                <mask id="mask-2" fill="white">
                    <use xlink:href="#path-1"></use>
                </mask>
                <g id="Clip-2"></g>
                <path d="M19.8016295,1 C21.8469331,1 23.9063895,1.01817286 25.7535181,1.62328544 C27.6681267,2.2505594 29.4673212,3.30067376 31.0603874,4.47027588 C32.5134269,5.53729156 33.571381,7.04307964 34.6269389,8.51627776 C34.7412586,8.675829 34.8554242,8.8351623 34.9698277,8.99375483 C36.1287827,10.6004656 37.0923266,12.3125889 37.7141247,14.2443685 C38.3856492,16.3235561 39,18.1681283 39,20.1212669 C39,21.8003899 38.4496243,23.3688936 37.931209,24.8973112 C37.8110036,25.2517069 37.6915455,25.6040267 37.5785619,25.9549803 C36.9572919,27.885121 36.2748339,29.7482394 35.1150336,31.3560368 C33.9439871,32.9797211 32.4496687,34.2870679 30.8410583,35.4683245 C29.2495376,36.636792 27.4511366,37.3311662 25.540281,37.957057 C23.6967693,38.5610585 21.845553,38.9856666 19.8016295,38.9856666 C19.4591225,38.9856666 19.1169306,38.9892908 18.7757823,38.9929228 C17.0815279,39.0109601 15.4109617,39.0476861 13.8740207,38.5441898 C11.9599897,37.9170311 10.2966828,36.7167764 8.70475336,35.5480088 C7.09563925,34.3663823 5.75972476,32.9051317 4.58892518,31.281562 C3.42958884,29.6746356 2.45444639,27.9486902 1.83287117,26.0176014 C1.23291987,24.1535371 1,22.1868389 1,20.1212669 C1,18.0556814 1.26745109,16.1000616 1.86733191,14.2359883 C2.488869,12.3050179 3.19406713,10.396702 4.35437912,8.78842324 C5.41583507,7.3167662 6.90098768,6.25371033 8.36382776,5.18616534 C8.5158982,5.07518804 8.66787113,4.96428008 8.8192516,4.85311631 C10.4103725,3.68494235 12.0829397,2.70070174 13.9949581,2.07443012 C15.8398177,1.47006084 17.7565089,1 19.8016295,1 Z" id="Fill-1" stroke="#212121" stroke-width="2" fill="#FFFFFF" mask="url(#mask-2)"></path>
            </g>
            <rect id="Rectangle" fill="#212121" transform="translate(20.000000, 19.250000) rotate(-45.000000) translate(-20.000000, -19.250000) " x="1" y="18" width="38" height="2.5"></rect>
            <g id="Icons-/-Swoosh" transform="translate(8.000000, 8.000000)">
                <mask id="mask-4" fill="white">
                    <use xlink:href="#path-3"></use>
                </mask>
                <g id="Clip-2"></g>
                <path d="M27.766,11.0862 C27.766,9.8272 26.719,8.8062 25.427,8.8062 C24.944,8.8062 24.495,8.9492 24.122,9.1932 L23.923,9.1932 C22.697,3.9382 17.874,0.0002 12.117,0.0002 C5.436,0.0002 0,5.2992 0,11.8122 C0,18.3242 5.436,23.6232 12.117,23.6232 C14.142,23.6232 16.146,23.1262 17.913,22.1862 L16.495,19.6522 C15.162,20.3622 13.648,20.7372 12.117,20.7372 C7.068,20.7372 2.96,16.7332 2.96,11.8122 C2.96,6.8902 7.068,2.8862 12.117,2.8862 C16.231,2.8862 19.719,5.5462 20.87,9.1932 L20.699,9.1932 C20.326,8.9492 19.876,8.8062 19.394,8.8062 C18.102,8.8062 17.055,9.8272 17.055,11.0862 C17.055,11.0862 16.751,12.0892 19.253,14.8022 C21.755,17.5152 22.411,18.2222 22.411,18.2222 C22.411,18.2222 23.065,17.5152 25.568,14.8022 C28.07,12.0892 27.766,11.0862 27.766,11.0862" id="Fill-1" fill="#212121" mask="url(#mask-4)"></path>
            </g>
        </g>
    </g>
</svg>